<svg xmlns="http://www.w3.org/2000/svg">
<symbol id="linkedin-de-starttec" viewBox="0 0 382 382">
<path fill="" d="M347.445 0H34.555C15.471 0 0 15.471 0 34.555v312.889C0 366.529 15.471 382 34.555 382h312.889C366.529 382 382 366.529 382 347.444V34.555C382 15.471 366.529 0 347.445 0zM118.207 329.844c0 5.554-4.502 10.056-10.056 10.056H65.345c-5.554 0-10.056-4.502-10.056-10.056V150.403c0-5.554 4.502-10.056 10.056-10.056h42.806c5.554 0 10.056 4.502 10.056 10.056v179.441zM86.748 123.432c-22.459 0-40.666-18.207-40.666-40.666S64.289 42.1 86.748 42.1s40.666 18.207 40.666 40.666-18.206 40.666-40.666 40.666zM341.91 330.654a9.247 9.247 0 0 1-9.246 9.246H286.73a9.247 9.247 0 0 1-9.246-9.246v-84.168c0-12.556 3.683-55.021-32.813-55.021-28.309 0-34.051 29.066-35.204 42.11v97.079a9.246 9.246 0 0 1-9.246 9.246h-44.426a9.247 9.247 0 0 1-9.246-9.246V149.593a9.247 9.247 0 0 1 9.246-9.246h44.426a9.247 9.247 0 0 1 9.246 9.246v15.655c10.497-15.753 26.097-27.912 59.312-27.912 73.552 0 73.131 68.716 73.131 106.472v86.846z"/>
</symbol>
<symbol id="instagram-de-starttec" viewBox="0 0 36.68 36.68">
<g id="instagram" fill="">
<path id="Trazado_237" d="M25.753 0H10.927A10.939 10.939 0 0 0 0 10.927v14.826A10.939 10.939 0 0 0 10.927 36.68h14.826A10.939 10.939 0 0 0 36.68 25.753V10.927A10.94 10.94 0 0 0 25.753 0zm7.237 25.753a7.237 7.237 0 0 1-7.237 7.237H10.927a7.237 7.237 0 0 1-7.237-7.237V10.927a7.237 7.237 0 0 1 7.237-7.237h14.826a7.237 7.237 0 0 1 7.237 7.237v14.826z"/>
<path id="Trazado_238" d="M142.487 133a9.487 9.487 0 1 0 9.487 9.487 9.5 9.5 0 0 0-9.487-9.487zm0 15.283a5.8 5.8 0 1 1 5.8-5.8 5.8 5.8 0 0 1-5.8 5.8z" transform="translate(-124.147 -124.147)"/>
<ellipse id="Elipse_16" cx="2.27" cy="2.27" rx="2.27" ry="2.27" transform="translate(25.572 6.651)"/></g>
</symbol>
<symbol id="facebook-de-starttec" viewBox="0 0 408.79 408.79">
<path fill="" d="M353.701 0H55.087C24.665 0 .002 24.662.002 55.085v298.616c0 30.423 24.662 55.085 55.085 55.085h147.275l.251-146.078h-37.951a8.954 8.954 0 0 1-8.954-8.92l-.182-47.087a8.955 8.955 0 0 1 8.955-8.989h37.882v-45.498c0-52.8 32.247-81.55 79.348-81.55h38.65a8.955 8.955 0 0 1 8.955 8.955v39.704a8.955 8.955 0 0 1-8.95 8.955l-23.719.011c-25.615 0-30.575 12.172-30.575 30.035v39.389h56.285c5.363 0 9.524 4.683 8.892 10.009l-5.581 47.087a8.955 8.955 0 0 1-8.892 7.901h-50.453l-.251 146.078h87.631c30.422 0 55.084-24.662 55.084-55.084V55.085C408.786 24.662 384.124 0 353.701 0z"/>
</symbol>
<symbol id="whatsapp-de-starttec" viewBox="0 0 36.38 36.68">
<path id="Trazado_239" fill="" d="M18.992.021A18.2 18.2 0 0 0 3.67 26.453l-1.931 9.375a.708.708 0 0 0 .857.832l9.187-2.176A18.193 18.193 0 1 0 18.992.021zm10.962 28.243a14.253 14.253 0 0 1-16.412 2.686l-1.279-.637-5.633 1.334 1.186-5.755-.63-1.234A14.257 14.257 0 0 1 9.81 8.12a14.244 14.244 0 1 1 20.144 20.144z" transform="translate(-1.69)"/>
<path id="Trazado_240" fill="" d="M122.575 120.131l-3.524-1.012a1.313 1.313 0 0 0-1.3.342l-.862.878a1.284 1.284 0 0 1-1.4.295 18.811 18.811 0 0 1-6.069-5.352 1.284 1.284 0 0 1 .1-1.423l.752-.973a1.313 1.313 0 0 0 .162-1.334l-1.482-3.353a1.314 1.314 0 0 0-2.052-.47 5.927 5.927 0 0 0-2.292 3.5c-.25 2.469.809 5.581 4.813 9.318 4.626 4.317 8.33 4.888 10.741 4.3a5.926 5.926 0 0 0 3.151-2.747 1.314 1.314 0 0 0-.738-1.969z" transform="translate(-95.555 -97.994)"/>
</symbol>
<symbol id="twitter-de-starttec" viewBox="0 0 410.15 410.15">
<path fill="" d="M403.632 74.18a162.414 162.414 0 0 1-28.28 9.537 88.177 88.177 0 0 0 23.275-37.067c1.295-4.051-3.105-7.554-6.763-5.385a163.188 163.188 0 0 1-43.235 17.862 11.02 11.02 0 0 1-2.702.336c-2.766 0-5.455-1.027-7.57-2.891-16.156-14.239-36.935-22.081-58.508-22.081-9.335 0-18.76 1.455-28.014 4.325-28.672 8.893-50.795 32.544-57.736 61.724-2.604 10.945-3.309 21.9-2.097 32.56a3.166 3.166 0 0 1-.797 2.481 3.278 3.278 0 0 1-2.753 1.091c-62.762-5.831-119.358-36.068-159.363-85.14-2.04-2.503-5.952-2.196-7.578.593-7.834 13.44-11.974 28.812-11.974 44.454 0 23.972 9.631 46.563 26.36 63.032a79.24 79.24 0 0 1-20.169-7.808c-3.06-1.7-6.825.485-6.868 3.985-.438 35.612 20.412 67.3 51.646 81.569a79.567 79.567 0 0 1-16.786-1.399c-3.446-.658-6.341 2.611-5.271 5.952 10.138 31.651 37.39 54.981 70.002 60.278-27.066 18.169-58.585 27.753-91.39 27.753l-10.227-.006c-3.151 0-5.816 2.054-6.619 5.106-.791 3.006.666 6.177 3.353 7.74 36.966 21.513 79.131 32.883 121.955 32.883 37.485 0 72.549-7.439 104.219-22.109 29.033-13.449 54.689-32.674 76.255-57.141 20.09-22.792 35.8-49.103 46.692-78.201 10.383-27.737 15.871-57.333 15.871-85.589v-1.346c-.001-4.537 2.051-8.806 5.631-11.712a174.776 174.776 0 0 0 35.16-38.591c2.573-3.849-1.485-8.673-5.719-6.795z"/></symbol>
</svg>
